<svg xmlns="http://www.w3.org/2000/svg" xmlns:xlink="http://www.w3.org/1999/xlink" width="500" zoomAndPan="magnify" viewBox="0 0 375 374.999991" height="500" preserveAspectRatio="xMidYMid meet" version="1.0"><defs><g/><clipPath id="fe08bd0357"><path d="M 56.488281 151.464844 L 318.238281 151.464844 L 318.238281 223.464844 L 56.488281 223.464844 Z M 56.488281 151.464844 " clip-rule="nonzero"/></clipPath><clipPath id="2c8b1dfc38"><path d="M 63.558594 158.238281 L 187.332031 158.238281 L 187.332031 216.761719 L 63.558594 216.761719 Z M 63.558594 158.238281 " clip-rule="nonzero"/></clipPath></defs><g clip-path="url(#fe08bd0357)"><path stroke-linecap="butt" transform="matrix(0.750202, 0, 0, 0.749268, 56.489269, 151.465449)" fill="none" stroke-linejoin="miter" d="M -0.00131637 -0.000808127 L 348.904932 -0.000808127 L 348.904932 96.092952 L -0.00131637 96.092952 L -0.00131637 -0.000808127 " stroke="#000000" stroke-width="6" stroke-opacity="1" stroke-miterlimit="4"/></g><g clip-path="url(#2c8b1dfc38)"><path fill="#000000" d="M 63.558594 158.238281 L 187.332031 158.238281 L 187.332031 216.761719 L 63.558594 216.761719 Z M 63.558594 158.238281 " fill-opacity="1" fill-rule="nonzero"/></g><g fill="#ffffff" fill-opacity="1"><g transform="translate(115.837225, 196.618259)"><g><path d="M 2.863281 0 L 5.335938 0 L 5.335938 -8.847656 L 8.144531 -8.847656 C 8.902344 -8.847656 9.578125 -8.902344 10.195312 -9.015625 L 15.28125 0 L 18.144531 0 L 12.5 -9.914062 C 13.621094 -10.644531 14.410156 -11.769531 14.96875 -13.257812 L 17.386719 -19.660156 L 14.773438 -19.660156 L 12.75 -14.242188 C 11.964844 -12.105469 10.8125 -11.207031 8.144531 -11.207031 L 5.335938 -11.207031 L 5.335938 -19.660156 L 2.863281 -19.660156 Z M 2.863281 0 "/></g></g></g><g fill="#000000" fill-opacity="1"><g transform="translate(195.140918, 196.769512)"><g><path d="M 2.078125 0 L 7.695312 0 L 7.695312 -9.972656 L 11.488281 -4.664062 L 15.167969 -4.664062 L 18.929688 -9.941406 L 18.929688 0 L 24.546875 0 L 24.546875 -19.660156 L 19.941406 -19.660156 L 13.3125 -10.308594 L 6.710938 -19.660156 L 2.078125 -19.660156 Z M 2.078125 0 "/></g></g></g><g fill="#000000" fill-opacity="1"><g transform="translate(221.765516, 196.769512)"><g><path d="M 11.65625 0.421875 C 17.917969 0.421875 22.355469 -3.820312 22.355469 -9.832031 C 22.355469 -15.839844 17.917969 -20.082031 11.65625 -20.082031 C 5.394531 -20.082031 0.953125 -15.839844 0.953125 -9.832031 C 0.953125 -3.820312 5.394531 0.421875 11.65625 0.421875 Z M 6.710938 -9.832031 C 6.710938 -12.78125 8.761719 -14.828125 11.65625 -14.828125 C 14.578125 -14.828125 16.597656 -12.78125 16.597656 -9.832031 C 16.597656 -6.882812 14.578125 -4.832031 11.65625 -4.832031 C 8.761719 -4.832031 6.710938 -6.882812 6.710938 -9.832031 Z M 6.710938 -9.832031 "/></g></g></g><g fill="#000000" fill-opacity="1"><g transform="translate(245.104166, 196.769512)"><g><path d="M 7.527344 0 L 13.144531 0 L 20.53125 -19.660156 L 14.492188 -19.660156 L 12.191406 -13.171875 L 10.363281 -8.0625 L 8.539062 -13.171875 L 6.234375 -19.660156 L 0.140625 -19.660156 Z M 7.527344 0 "/></g></g></g><g fill="#000000" fill-opacity="1"><g transform="translate(265.774737, 196.769512)"><g><path d="M 2.078125 0 L 7.75 0 L 7.75 -19.660156 L 2.078125 -19.660156 Z M 2.078125 0 "/></g></g></g><g fill="#000000" fill-opacity="1"><g transform="translate(275.604497, 196.769512)"><g><path d="M 2.078125 0 L 15.867188 0 L 15.867188 -4.632812 L 7.695312 -4.632812 L 7.695312 -7.667969 L 14.800781 -7.667969 L 14.800781 -12.21875 L 7.695312 -12.21875 L 7.695312 -15.082031 L 15.558594 -15.082031 L 15.558594 -19.660156 L 2.078125 -19.660156 Z M 2.078125 0 "/></g></g></g><g fill="#000000" fill-opacity="1"><g transform="translate(292.736352, 196.769512)"><g><path d="M 9.128906 0.421875 C 14.015625 0.421875 16.90625 -1.882812 16.90625 -5.757812 C 16.90625 -9.015625 14.800781 -10.925781 10.027344 -11.992188 C 7.5 -12.554688 6.574219 -13.171875 6.574219 -14.183594 C 6.574219 -15.140625 7.414062 -15.730469 8.734375 -15.730469 C 10.308594 -15.730469 11.207031 -14.914062 11.207031 -13.425781 L 16.542969 -13.425781 C 16.542969 -17.46875 13.453125 -20.082031 8.621094 -20.082031 C 3.988281 -20.082031 1.125 -17.777344 1.125 -14.070312 C 1.125 -10.757812 3.285156 -8.707031 7.722656 -7.863281 C 10.109375 -7.386719 11.261719 -6.65625 11.261719 -5.53125 C 11.261719 -4.550781 10.421875 -3.988281 9.042969 -3.988281 C 7.414062 -3.988281 6.460938 -4.859375 6.460938 -6.375 L 0.984375 -6.375 C 0.984375 -2.132812 4.015625 0.421875 9.128906 0.421875 Z M 9.128906 0.421875 "/></g></g></g></svg>